<?xml version="1.0" standalone="no"?><!DOCTYPE svg PUBLIC "-//W3C//DTD SVG 1.1//EN" "http://www.w3.org/Graphics/SVG/1.1/DTD/svg11.dtd"><svg width="100%" height="100%" viewBox="0 0 150 150" version="1.1" xmlns="http://www.w3.org/2000/svg" xmlns:xlink="http://www.w3.org/1999/xlink" xml:space="preserve" style="fill-rule:evenodd;clip-rule:evenodd;stroke-linejoin:round;stroke-miterlimit:1.41421;"><path d="M97.461,43.984l-44.923,0c0,-12.775 10.065,-23.148 22.462,-23.148c12.397,0 22.461,10.373 22.461,23.148" style="fill:#f00;fill-rule:nonzero;"/><path d="M105.869,23.059l0,21.057l21.074,0c0,-11.622 -9.443,-21.057 -21.074,-21.057" style="fill:#00d2ff;fill-rule:nonzero;"/><path d="M23.067,44.124l21.049,0l0,-21.066c-11.617,0 -21.049,9.439 -21.049,21.066" style="fill:#f00;fill-rule:nonzero;"/><path d="M52.538,105.885l44.923,0c0,12.775 -10.065,23.148 -22.462,23.148c-12.396,0 -22.461,-10.373 -22.461,-23.148" style="fill:#00dc00;fill-rule:nonzero;"/><path d="M44.131,126.941l0,-21.056l-21.073,0c0,11.621 9.442,21.056 21.073,21.056" style="fill:#ffc800;fill-rule:nonzero;"/><path d="M126.941,105.869l-21.057,0l0,21.073c11.622,0 21.057,-9.442 21.057,-21.073" style="fill:#00dc00;fill-rule:nonzero;"/><path d="M44.05,52.473l0,44.924c-12.775,0 -23.148,-10.066 -23.148,-22.463c0,-12.397 10.373,-22.461 23.148,-22.461" style="fill:#ffc800;fill-rule:nonzero;"/><path d="M105.951,97.396l0,-44.924c12.775,0 23.148,10.065 23.148,22.462c0,12.397 -10.373,22.462 -23.148,22.462" style="fill:#00d2ff;fill-rule:nonzero;"/><path d="M55.346,13.231c4.012,-6.727 11.316,-11.231 19.654,-11.231c8.338,0 15.641,4.504 19.654,11.231l-39.308,0Z" style="fill:#f00;fill-rule:nonzero;"/><path d="M94.654,136.769c-4.012,6.727 -11.316,11.231 -19.654,11.231c-8.338,0 -15.642,-4.504 -19.654,-11.231l39.308,0Z" style="fill:#00dc00;fill-rule:nonzero;"/><path d="M136.769,55.346c6.727,4.012 11.231,11.316 11.231,19.654c0,8.337 -4.504,15.641 -11.231,19.654l0,-39.308Z" style="fill:#00d2ff;fill-rule:nonzero;"/><path d="M13.231,94.654c-6.727,-4.012 -11.231,-11.316 -11.231,-19.653c0,-8.338 4.504,-15.642 11.231,-19.655l0,39.308Z" style="fill:#ffc800;fill-rule:nonzero;"/></svg>