<?xml version="1.0" encoding="utf-8"?>
<!-- Generator: Adobe Illustrator 17.0.0, SVG Export Plug-In . SVG Version: 6.00 Build 0)  -->
<!DOCTYPE svg PUBLIC "-//W3C//DTD SVG 1.1//EN" "http://www.w3.org/Graphics/SVG/1.1/DTD/svg11.dtd">
<svg version="1.1" id="Ebene_1" xmlns="http://www.w3.org/2000/svg" xmlns:xlink="http://www.w3.org/1999/xlink" x="0px" y="0px"
	 width="1200px" height="1800px" viewBox="0 0 1200 1800" enable-background="new 0 0 1200 1800" xml:space="preserve">
<path fill="#FF0000" d="M622.461,868.984h-44.923c0-12.775,10.065-23.148,22.462-23.148
	C612.397,845.836,622.461,856.209,622.461,868.984"/>
<path fill="#00D2FF" d="M630.869,848.059v21.057h21.074C651.943,857.494,642.5,848.059,630.869,848.059"/>
<path fill="#FF0000" d="M548.067,869.124h21.049v-21.066C557.499,848.058,548.067,857.497,548.067,869.124"/>
<path fill="#00DC00" d="M577.538,930.885h44.923c0,12.775-10.065,23.148-22.462,23.148
	C587.603,954.033,577.538,943.66,577.538,930.885"/>
<path fill="#FFC800" d="M569.131,951.941v-21.056h-21.073C548.058,942.506,557.5,951.941,569.131,951.941"/>
<path fill="#00DC00" d="M651.941,930.869h-21.057v21.073C642.506,951.942,651.941,942.5,651.941,930.869"/>
<path fill="#FFC800" d="M569.05,877.473v44.924c-12.775,0-23.148-10.066-23.148-22.463
	C545.902,887.537,556.275,877.473,569.05,877.473"/>
<path fill="#00D2FF" d="M630.951,922.396v-44.924c12.775,0,23.148,10.065,23.148,22.462
	C654.099,912.331,643.726,922.396,630.951,922.396"/>
<path fill="#FF0000" d="M580.346,838.231C584.358,831.504,591.662,827,600,827s15.641,4.504,19.654,11.231H580.346z"/>
<path fill="#00DC00" d="M619.654,961.769C615.642,968.496,608.338,973,600,973c-8.338,0-15.642-4.504-19.654-11.231H619.654z"/>
<path fill="#00D2FF" d="M661.769,880.346C668.496,884.358,673,891.662,673,900c0,8.337-4.504,15.641-11.231,19.654V880.346z"/>
<path fill="#FFC800" d="M538.231,919.654C531.504,915.642,527,908.338,527,900.001c0-8.338,4.504-15.642,11.231-19.655V919.654z"/>
</svg>
