<?xml version="1.0" standalone="no"?><!DOCTYPE svg PUBLIC "-//W3C//DTD SVG 1.1//EN" "http://www.w3.org/Graphics/SVG/1.1/DTD/svg11.dtd"><svg width="100%" height="100%" viewBox="0 0 150 150" version="1.1" xmlns="http://www.w3.org/2000/svg" xmlns:xlink="http://www.w3.org/1999/xlink" xml:space="preserve" style="fill-rule:evenodd;clip-rule:evenodd;stroke-linejoin:round;stroke-miterlimit:1.41421;"><path d="M55.346,13.231c4.012,-6.727 11.316,-11.231 19.654,-11.231c8.338,0 15.641,4.504 19.654,11.231l-39.308,0Z" style="fill:#000;fill-rule:nonzero;"/><path d="M94.654,136.769c-4.012,6.727 -11.316,11.231 -19.654,11.231c-8.338,0 -15.642,-4.504 -19.654,-11.231l39.308,0Z" style="fill:#000;fill-rule:nonzero;"/><path d="M136.769,55.346c6.727,4.012 11.231,11.316 11.231,19.654c0,8.337 -4.504,15.641 -11.231,19.654l0,-39.308Z" style="fill:#000;fill-rule:nonzero;"/><path d="M13.231,94.654c-6.727,-4.012 -11.231,-11.316 -11.231,-19.653c0,-8.338 4.504,-15.642 11.231,-19.655l0,39.308Z" style="fill:#000;fill-rule:nonzero;"/></svg>