<?xml version="1.0" encoding="utf-8"?>
<!-- Generator: Adobe Illustrator 17.0.0, SVG Export Plug-In . SVG Version: 6.00 Build 0)  -->
<!DOCTYPE svg PUBLIC "-//W3C//DTD SVG 1.1//EN" "http://www.w3.org/Graphics/SVG/1.1/DTD/svg11.dtd">
<svg version="1.1" id="Ebene_1" xmlns="http://www.w3.org/2000/svg" xmlns:xlink="http://www.w3.org/1999/xlink" x="0px" y="0px"
	 width="1200px" height="1800px" viewBox="0 0 1200 1800" enable-background="new 0 0 1200 1800" xml:space="preserve">
<path d="M580.346,838.231C584.358,831.504,591.662,827,600,827s15.641,4.504,19.654,11.231H580.346z"/>
<path d="M619.654,961.769C615.642,968.496,608.338,973,600,973c-8.338,0-15.642-4.504-19.654-11.231H619.654z"/>
<path d="M661.769,880.346C668.496,884.358,673,891.662,673,900c0,8.337-4.504,15.641-11.231,19.654V880.346z"/>
<path d="M538.231,919.654C531.504,915.642,527,908.338,527,900.001c0-8.338,4.504-15.642,11.231-19.655V919.654z"/>
</svg>
