<?xml version="1.0" encoding="utf-8"?>
<!-- Generator: Adobe Illustrator 17.0.0, SVG Export Plug-In . SVG Version: 6.00 Build 0)  -->
<!DOCTYPE svg PUBLIC "-//W3C//DTD SVG 1.1//EN" "http://www.w3.org/Graphics/SVG/1.1/DTD/svg11.dtd">
<svg version="1.1" id="Ebene_1" xmlns="http://www.w3.org/2000/svg" xmlns:xlink="http://www.w3.org/1999/xlink" x="0px" y="0px"
	 width="1200px" height="1680px" viewBox="0 0 1200 1680" enable-background="new 0 0 1200 1680" xml:space="preserve">
<path fill="#FF004C" d="M154,857.924c-50.198,28.768-84,82.508-84,144c0,61.493,33.802,115.233,84,144V857.924z"/>
<path fill="#FF004C" d="M1046,857.924c50.198,28.768,84,82.508,84,144c0,61.493-33.802,115.233-84,144V857.924z"/>
<path fill="#FF004C" d="M822,1163.924v-324c92.722,0,168,72.589,168,162S914.722,1163.924,822,1163.924"/>
<path fill="#FF004C" d="M378,1163.924v-324c-92.722,0-168,72.589-168,162S285.278,1163.924,378,1163.924"/>
<path fill="#FF004C" d="M378,1287.924h-70v-70C346.634,1217.924,378,1249.289,378,1287.924"/>
<path fill="#FF004C" d="M822,1287.924h70v-70C853.366,1217.924,822,1249.289,822,1287.924"/>
<path fill="#FF004C" d="M822,715.924h70v70C853.366,785.924,822,754.559,822,715.924"/>
<path fill="#FF004C" d="M378,715.924h-70v70C346.634,785.924,378,754.559,378,715.924"/>
<path fill="#FF004C" d="M386.453,584.731c-55.837-15.154-117.738-1.055-161.22,42.427c-43.481,43.481-57.58,105.383-42.426,161.219
	L386.453,584.731z"/>
<path fill="#FF004C" d="M1017.193,1215.47c15.154,55.837,1.055,117.738-42.427,161.22c-43.481,43.481-105.383,57.58-161.219,42.426
	L1017.193,1215.47z"/>
<path fill="#FF004C" d="M182.807,1215.47c-15.154,55.837-1.055,117.738,42.427,161.22c43.481,43.481,105.383,57.58,161.219,42.426
	L182.807,1215.47z"/>
<path fill="#FF004C" d="M813.547,584.731c55.837-15.154,117.738-1.055,161.22,42.427c43.481,43.481,57.58,105.383,42.426,161.219
	L813.547,584.731z"/>
<path fill="#FF004C" d="M0.429,690.002c61.492,0,115.232-33.802,144-84h-144V690.002z"/>
<path fill="#FF004C" d="M0.429,545.997c89.247-0.199,161.645-75.396,161.645-167.995H0.429V545.997z"/>
<path fill="#FF004C" d="M225.296,522.002v-144h140C365.296,457.478,302.567,522.002,225.296,522.002"/>
<path fill="#FF004C" d="M1200.429,606.002h-144c28.768,50.198,82.508,84,144,84V606.002z"/>
<path fill="#FF004C" d="M1200.429,378.002h-162c0,92.722,72.589,168,162,168V378.002z"/>
<path fill="#FF004C" d="M975.561,522.002v-144h-140C835.561,457.478,898.29,522.002,975.561,522.002"/>
<path fill="#FF004C" d="M446,18.002v288c51-28.767,84-82.507,84-144S497,46.769,446,18.002z"/>
<path fill="#FF004C" d="M670,162.002c0,61.493,34,115.233,84,144v-288C704,46.769,670,100.509,670,162.002z"/>
<path fill="#FF004C" d="M0.429,1314.002c61.492,0,115.232,33.802,144,84h-144V1314.002z"/>
<path fill="#FF004C" d="M0.429,1458.007c89.247,0.199,161.645,75.396,161.645,167.995H0.429V1458.007z"/>
<path fill="#FF004C" d="M225.296,1482.002v144h140C365.296,1546.526,302.567,1482.002,225.296,1482.002"/>
<path fill="#FF004C" d="M1200.429,1398.002h-144c28.768-50.198,82.508-84,144-84V1398.002z"/>
<path fill="#FF004C" d="M1200.429,1626.002h-162c0-92.722,72.589-168,162-168V1626.002z"/>
<path fill="#FF004C" d="M975.561,1482.002v144h-140C835.561,1546.526,898.29,1482.002,975.561,1482.002"/>
<path fill="#FF004C" d="M978.428,324.002v-324c-92.722,0-168,72.589-168,162C810.428,251.413,885.706,324.002,978.428,324.002"/>
<path fill="#FF004C" d="M225.429,324.002v-324c92.722,0,168,72.589,168,162C393.429,251.413,318.151,324.002,225.429,324.002"/>
</svg>
