<?xml version="1.0" encoding="utf-8"?>
<!-- Generator: Adobe Illustrator 17.0.0, SVG Export Plug-In . SVG Version: 6.00 Build 0)  -->
<!DOCTYPE svg PUBLIC "-//W3C//DTD SVG 1.1//EN" "http://www.w3.org/Graphics/SVG/1.1/DTD/svg11.dtd">
<svg version="1.1" id="Ebene_1" xmlns="http://www.w3.org/2000/svg" xmlns:xlink="http://www.w3.org/1999/xlink" x="0px" y="0px"
	 width="1200px" height="1680px" viewBox="0 0 1200 1680" enable-background="new 0 0 1200 1680" xml:space="preserve">
<path fill="#FFA300" d="M154,857.922c-50.198,28.768-84,82.508-84,144c0,61.493,33.802,115.233,84,144V857.922z"/>
<path fill="#FFA300" d="M1046,857.922c50.198,28.768,84,82.508,84,144c0,61.493-33.802,115.233-84,144V857.922z"/>
<path fill="#FFA300" d="M822,1163.922v-324c92.722,0,168,72.589,168,162C990,1091.333,914.722,1163.922,822,1163.922"/>
<path fill="#FFA300" d="M0.429,690c61.492,0,115.232-33.802,144-84h-144V690z"/>
<path fill="#FFA300" d="M0.429,545.995C89.676,545.796,162.074,470.599,162.074,378H0.429V545.995z"/>
<path fill="#FFA300" d="M225.296,522V378h140C365.296,457.476,302.567,522,225.296,522"/>
<path fill="#FFA300" d="M1200.429,606h-144c28.768,50.198,82.508,84,144,84V606z"/>
<path fill="#FFA300" d="M1200.429,378h-162c0,92.722,72.589,168,162,168V378z"/>
<path fill="#FFA300" d="M975.561,522V378h-140C835.561,457.476,898.29,522,975.561,522"/>
<path fill="#FFA300" d="M446,18v288c51-28.767,84-82.507,84-144S497,46.767,446,18z"/>
<path fill="#FFA300" d="M670,162c0,61.493,34,115.233,84,144V18C704,46.767,670,100.507,670,162z"/>
<path fill="#FFA300" d="M0.429,1314c61.492,0,115.232,33.802,144,84h-144V1314z"/>
<path fill="#FFA300" d="M0.429,1458.005c89.247,0.199,161.645,75.396,161.645,167.995H0.429V1458.005z"/>
<path fill="#FFA300" d="M225.296,1482v144h140C365.296,1546.524,302.567,1482,225.296,1482"/>
<path fill="#FFA300" d="M1200.429,1398h-144c28.768-50.198,82.508-84,144-84V1398z"/>
<path fill="#FFA300" d="M1200.429,1626h-162c0-92.722,72.589-168,162-168V1626z"/>
<path fill="#FFA300" d="M975.561,1482v144h-140C835.561,1546.524,898.29,1482,975.561,1482"/>
<path fill="#FFA300" d="M978.428,324V0c-92.722,0-168,72.589-168,162C810.428,251.411,885.706,324,978.428,324"/>
<path fill="#FFA300" d="M225.429,324V0c92.722,0,168,72.589,168,162C393.429,251.411,318.151,324,225.429,324"/>
<path fill="#FFA300" d="M378,1163.922v-324c-92.722,0-168,72.589-168,162C210,1091.333,285.278,1163.922,378,1163.922"/>
<path fill="#FFA300" d="M308,1217.921h70v70C339.366,1287.921,308,1256.556,308,1217.921"/>
<path fill="#FFA300" d="M892,1217.921h-70v70C860.634,1287.921,892,1256.556,892,1217.921"/>
<path fill="#FFA300" d="M892,785.922h-70v-70C860.634,715.922,892,747.286,892,785.922"/>
<path fill="#FFA300" d="M308,785.922h70v-70C339.366,715.922,308,747.286,308,785.922"/>
</svg>
