<svg version="1.1" id="Ebene_1" xmlns="http://www.w3.org/2000/svg" xmlns:xlink="http://www.w3.org/1999/xlink" x="0px" y="0px"
	 width="1200px" height="1680px" viewBox="0 0 1200 1680" enable-background="new 0 0 1200 1680" xml:space="preserve">
<path fill="#00F500" d="M154.009,858.002c-50.198,28.768-84,82.508-84,144c0,61.493,33.802,115.233,84,144V858.002z"/>
<path fill="#00F500" d="M378.009,858.002c-50.198,28.768-84,82.508-84,144c0,61.493,33.802,115.233,84,144V858.002z"/>
<path fill="#00F500" d="M1046.009,858.002c50.198,28.768,84,82.508,84,144c0,61.493-33.802,115.233-84,144V858.002z"/>
<path fill="#00F500" d="M822.009,858.002c50.198,28.768,84,82.508,84,144c0,61.493-33.802,115.233-84,144V858.002z"/>
<path fill="#00F500" d="M295.009,488.002h-70v70C263.643,558.002,295.009,526.637,295.009,488.002"/>
<path fill="#00F500" d="M381.189,624.002h-156v156C311.287,780.002,381.189,710.107,381.189,624.002"/>
<path fill="#00F500" d="M154.009,625.002h-70v70C122.643,695.002,154.009,663.637,154.009,625.002"/>
<path fill="#00F500" d="M905.19,488.002h70v70C936.556,558.002,905.19,526.637,905.19,488.002"/>
<path fill="#00F500" d="M819.009,624.002h156v156C888.911,780.002,819.009,710.107,819.009,624.002"/>
<path fill="#00F500" d="M1046.19,625.002h70v70C1077.556,695.002,1046.19,663.637,1046.19,625.002"/>
<path fill="#00F500" d="M295.009,1516.002h-70v-70C263.643,1446.002,295.009,1477.367,295.009,1516.002"/>
<path fill="#00F500" d="M381.189,1380.002h-156v-156C311.287,1224.002,381.189,1293.897,381.189,1380.002"/>
<path fill="#00F500" d="M154.009,1379.002h-70v-70C122.643,1309.002,154.009,1340.367,154.009,1379.002"/>
<path fill="#00F500" d="M905.19,1516.002h70v-70C936.556,1446.002,905.19,1477.367,905.19,1516.002"/>
<path fill="#00F500" d="M819.009,1380.002h156v-156C888.911,1224.002,819.009,1293.897,819.009,1380.002"/>
<path fill="#00F500" d="M1046.19,1379.002h70v-70C1077.556,1309.002,1046.19,1340.367,1046.19,1379.002"/>
<path fill="#00F500" d="M0.435,545.999C89.682,545.8,162.08,470.603,162.08,378.004H0.435V545.999z"/>
<path fill="#00F500" d="M1200.435,378.004h-162c0,92.722,72.589,168,162,168V378.004z"/>
<path fill="#00F500" d="M446,18.004v288c51-28.767,84-82.507,84-144S497,46.771,446,18.004z"/>
<path fill="#00F500" d="M670,162.004c0,61.493,34,115.233,84,144v-288C704,46.771,670,100.511,670,162.004z"/>
<path fill="#00F500" d="M0.435,1458.009c89.247,0.199,161.645,75.396,161.645,167.995H0.435V1458.009z"/>
<path fill="#00F500" d="M1200.435,1626.004h-162c0-92.722,72.589-168,162-168V1626.004z"/>
<path fill="#00F500" d="M978.434,324.004v-324c-92.722,0-168,72.589-168,162C810.434,251.415,885.712,324.004,978.434,324.004"/>
<path fill="#00F500" d="M225.435,324.004v-324c92.722,0,168,72.589,168,162C393.435,251.415,318.157,324.004,225.435,324.004"/>
</svg>
