<?xml version="1.0" encoding="utf-8"?>
<!-- Generator: Adobe Illustrator 17.0.0, SVG Export Plug-In . SVG Version: 6.00 Build 0)  -->
<!DOCTYPE svg PUBLIC "-//W3C//DTD SVG 1.1//EN" "http://www.w3.org/Graphics/SVG/1.1/DTD/svg11.dtd">
<svg version="1.1" id="Ebene_1" xmlns="http://www.w3.org/2000/svg" xmlns:xlink="http://www.w3.org/1999/xlink" x="0px" y="0px"
	 width="1200px" height="1680px" viewBox="0 0 1200 1680" enable-background="new 0 0 1200 1680" xml:space="preserve">
<path fill="#00DC00" d="M0,528c61.492,0,115.232-33.802,144-84H0V528z"/>
<path fill="#00DC00" d="M0,383.995C89.247,383.796,161.645,308.599,161.645,216H0V383.995z"/>
<path fill="#00DC00" d="M225,0v162c91.063,0,164.999-72.59,165-162H225z"/>
<path fill="#00DC00" d="M224.867,360V216h140C364.867,295.476,302.138,360,224.867,360"/>
<path fill="#00DC00" d="M446,0v144c50.198-28.767,84-82.507,84-144H446z"/>
<path fill="#00D2FF" d="M1200,444h-144c28.768,50.198,82.508,84,144,84V444z"/>
<path fill="#00D2FF" d="M1200,216h-162c0,92.722,72.589,168,162,168V216z"/>
<path fill="#00D2FF" d="M810,0C810,89.41,883.936,162,975,162V0H810z"/>
<path fill="#00D2FF" d="M975.132,360V216h-140C835.132,295.476,897.861,360,975.132,360"/>
<path fill="#00D2FF" d="M669.999,0L669.999,0c0,61.493,33.802,115.233,84,144V0H669.999z"/>
<path fill="#FF0000" d="M378,1002V678c-92.722,0-168,72.589-168,162S285.278,1002,378,1002"/>
<path fill="#FF0000" d="M378,480v144H238C238,544.524,300.729,480,378,480"/>
<path fill="#FF0000" d="M378,1200v-144H238C238,1135.476,300.729,1200,378,1200"/>
<path fill="#FF0000" d="M154,696c-50.198,28.768-84,82.508-84,144c0,61.493,33.802,115.233,84,144V696z"/>
<path fill="#FFC800" d="M822,1002V678c92.722,0,168,72.589,168,162S914.722,1002,822,1002"/>
<path fill="#FFC800" d="M822,480v144h140C962,544.524,899.271,480,822,480"/>
<path fill="#FFC800" d="M822,1200v-144h140C962,1135.476,899.271,1200,822,1200"/>
<path fill="#FFC800" d="M1046,696c50.198,28.768,84,82.508,84,144c0,61.493-33.802,115.233-84,144V696z"/>
<path fill="#00DC00" d="M0,1152c61.492,0,115.232,33.802,144,84H0V1152z"/>
<path fill="#00DC00" d="M0,1296.005c89.247,0.199,161.645,75.396,161.645,167.995H0V1296.005z"/>
<path fill="#00DC00" d="M225,1680v-162c91.063,0,164.999,72.59,165,162H225z"/>
<path fill="#00DC00" d="M224.867,1320v144h140C364.867,1384.524,302.138,1320,224.867,1320"/>
<path fill="#00D2FF" d="M1200,1236h-144c28.768-50.198,82.508-84,144-84V1236z"/>
<path fill="#00D2FF" d="M1200,1464h-162c0-92.722,72.589-168,162-168V1464z"/>
<path fill="#00D2FF" d="M810,1680c0.001-89.41,73.937-162,165-162v162H810z"/>
<path fill="#00D2FF" d="M975.132,1320v144h-140C835.132,1384.524,897.861,1320,975.132,1320"/>
</svg>
