<?xml version="1.0" encoding="utf-8"?>
<!-- Generator: Adobe Illustrator 17.0.0, SVG Export Plug-In . SVG Version: 6.00 Build 0)  -->
<!DOCTYPE svg PUBLIC "-//W3C//DTD SVG 1.1//EN" "http://www.w3.org/Graphics/SVG/1.1/DTD/svg11.dtd">
<svg version="1.1" id="Ebene_1" xmlns="http://www.w3.org/2000/svg" xmlns:xlink="http://www.w3.org/1999/xlink" x="0px" y="0px"
	 width="1200px" height="1680px" viewBox="0 0 1200 1680" enable-background="new 0 0 1200 1680" xml:space="preserve">
<path fill="#00CEFF" d="M154.425,857.996c-50.198,28.768-84,82.508-84,144c0,61.493,33.802,115.233,84,144V857.996z"/>
<path fill="#00CEFF" d="M378.425,857.996c-50.198,28.768-84,82.508-84,144c0,61.493,33.802,115.233,84,144V857.996z"/>
<path fill="#00CEFF" d="M266.425,857.996c-50.198,28.768-84,82.508-84,144c0,61.493,33.802,115.233,84,144V857.996z"/>
<path fill="#00CEFF" d="M1046.425,857.996c50.198,28.768,84,82.508,84,144c0,61.493-33.802,115.233-84,144V857.996z"/>
<path fill="#00CEFF" d="M822.425,857.996c50.198,28.768,84,82.508,84,144c0,61.493-33.802,115.233-84,144V857.996z"/>
<path fill="#00CEFF" d="M934.425,857.996c50.198,28.768,84,82.508,84,144c0,61.493-33.802,115.233-84,144V857.996z"/>
<path fill="#00CEFF" d="M892.425,1217.996h-70v70C861.059,1287.996,892.425,1256.631,892.425,1217.996"/>
<path fill="#00CEFF" d="M891.733,1332.084h-69.307v69.363C860.677,1401.447,891.733,1370.368,891.733,1332.084"/>
<path fill="#00CEFF" d="M1117.425,1217.996h-70v70C1086.059,1287.996,1117.425,1256.631,1117.425,1217.996"/>
<path fill="#00CEFF" d="M1004.925,1217.996h-70v70C973.559,1287.996,1004.925,1256.631,1004.925,1217.996"/>
<path fill="#00CEFF" d="M892.425,1445.996h-70v70C861.059,1515.996,892.425,1484.631,892.425,1445.996"/>
<path fill="#00CEFF" d="M308.425,1217.996h70v70C339.791,1287.996,308.425,1256.631,308.425,1217.996"/>
<path fill="#00CEFF" d="M309.118,1332.084h69.308v69.363C340.174,1401.447,309.118,1370.368,309.118,1332.084"/>
<path fill="#00CEFF" d="M83.425,1217.996h70v70C114.791,1287.996,83.425,1256.631,83.425,1217.996"/>
<path fill="#00CEFF" d="M195.925,1217.996h70v70C227.291,1287.996,195.925,1256.631,195.925,1217.996"/>
<path fill="#00CEFF" d="M308.425,1445.996h70v70C339.791,1515.996,308.425,1484.631,308.425,1445.996"/>
<path fill="#00CEFF" d="M892.425,785.996h-70v-70C861.059,715.996,892.425,747.362,892.425,785.996"/>
<path fill="#00CEFF" d="M891.733,671.909h-69.307v-69.363C860.677,602.546,891.733,633.625,891.733,671.909"/>
<path fill="#00CEFF" d="M1117.425,785.996h-70v-70C1086.059,715.996,1117.425,747.362,1117.425,785.996"/>
<path fill="#00CEFF" d="M1004.925,785.996h-70v-70C973.559,715.996,1004.925,747.362,1004.925,785.996"/>
<path fill="#00CEFF" d="M892.425,557.996h-70v-70C861.059,487.996,892.425,519.362,892.425,557.996"/>
<path fill="#00CEFF" d="M308.425,785.996h70v-70C339.791,715.996,308.425,747.362,308.425,785.996"/>
<path fill="#00CEFF" d="M309.118,671.909h69.308v-69.363C340.174,602.546,309.118,633.625,309.118,671.909"/>
<path fill="#00CEFF" d="M83.425,785.996h70v-70C114.791,715.996,83.425,747.362,83.425,785.996"/>
<path fill="#00CEFF" d="M195.925,785.996h70v-70C227.291,715.996,195.925,747.362,195.925,785.996"/>
<path fill="#00CEFF" d="M308.425,557.996h70v-70C339.791,487.996,308.425,519.362,308.425,557.996"/>
<path fill="#00CEFF" d="M0.42,689.996c61.492,0,115.232-33.802,144-84h-144V689.996z"/>
<path fill="#00CEFF" d="M0.42,545.992c89.247-0.199,161.645-75.396,161.645-167.995H0.42V545.992z"/>
<path fill="#00CEFF" d="M1200.421,605.996h-144c28.768,50.198,82.508,84,144,84V605.996z"/>
<path fill="#00CEFF" d="M1200.421,377.996h-162c0,92.722,72.589,168,162,168V377.996z"/>
<path fill="#00CEFF" d="M446,17.996v288c51-28.767,84-82.507,84-144S497,46.763,446,17.996z"/>
<path fill="#00CEFF" d="M670,161.996c0,61.493,34,115.233,84,144v-288C704,46.763,670,100.503,670,161.996z"/>
<path fill="#00CEFF" d="M0.42,1313.996c61.492,0,115.232,33.802,144,84h-144V1313.996z"/>
<path fill="#00CEFF" d="M0.42,1458.001c89.247,0.199,161.645,75.396,161.645,167.995H0.42V1458.001z"/>
<path fill="#00CEFF" d="M1200.421,1397.996h-144c28.768-50.198,82.508-84,144-84V1397.996z"/>
<path fill="#00CEFF" d="M1200.421,1625.996h-162c0-92.722,72.589-168,162-168V1625.996z"/>
<path fill="#00CEFF" d="M978.42,323.996v-324c-92.722,0-168,72.589-168,162C810.42,251.407,885.698,323.996,978.42,323.996"/>
<path fill="#00CEFF" d="M225.421,323.996v-324c92.722,0,168,72.589,168,162C393.421,251.407,318.143,323.996,225.421,323.996"/>
</svg>
